<?xml version="1.0" standalone="no"?>
<!DOCTYPE svg PUBLIC "-//W3C//DTD SVG 20010904//EN"
 "http://www.w3.org/TR/2001/REC-SVG-20010904/DTD/svg10.dtd">
<svg version="1.0" xmlns="http://www.w3.org/2000/svg"
 width="256.000000pt" height="256.000000pt" viewBox="0 0 256.000000 256.000000"
 preserveAspectRatio="xMidYMid meet">

<g transform="translate(0.000000,256.000000) scale(0.100000,-0.100000)"
fill="#000000" stroke="none">
<path d="M1320 2050 c0 -15 6 -20 25 -20 14 0 25 -6 25 -13 0 -7 -18 -53 -40
-102 l-39 -90 -83 -7 c-327 -27 -590 -144 -814 -360 -241 -233 -382 -546 -387
-860 -2 -97 -1 -103 18 -103 18 0 21 9 26 105 28 446 276 832 666 1033 153 79
369 137 503 137 75 -1 80 -10 80 -138 l0 -111 -29 5 c-26 5 -30 2 -45 -38
l-18 -43 -32 80 -32 80 -55 0 c-47 0 -54 -2 -54 -20 0 -14 8 -21 28 -23 15 -2
27 -5 27 -7 0 -2 -16 -44 -35 -95 l-35 -91 20 -39 c12 -23 20 -57 19 -82 l-1
-43 -15 50 c-35 122 -49 124 -94 15 -18 -44 -36 -80 -40 -80 -4 0 -34 52 -66
115 l-58 115 -57 0 c-51 0 -58 -2 -58 -19 0 -15 8 -21 30 -23 l30 -3 -60 -109
c-58 -104 -60 -110 -47 -137 11 -24 11 -42 1 -106 -7 -43 -13 -84 -13 -91 -1
-8 -8 -12 -16 -10 -9 2 -35 46 -59 98 l-42 95 -55 0 c-47 0 -54 -2 -54 -20 0
-13 8 -21 23 -23 12 -2 22 -6 22 -9 0 -3 -33 -68 -73 -144 -76 -147 -78 -158
-19 -159 26 0 27 -3 7 -134 -8 -55 -15 -108 -15 -118 0 -17 17 -18 350 -18
l350 0 0 74 c0 40 5 88 11 107 15 44 63 94 114 119 76 37 198 19 247 -36 32
-36 60 -117 67 -188 l6 -71 329 -3 c183 -1 334 2 339 7 5 5 2 31 -7 62 -9 29
-16 83 -16 121 l0 68 30 0 c18 0 33 6 36 15 3 8 -17 63 -44 122 -28 60 -65
143 -83 187 l-32 78 -47 -4 -46 -5 -30 86 -29 86 -50 0 c-43 0 -50 -3 -50 -20
0 -13 8 -21 23 -23 12 -2 22 -6 22 -10 0 -4 -12 -43 -26 -86 -24 -72 -28 -78
-40 -61 -8 10 -14 42 -14 70 0 58 -52 244 -72 256 -21 14 -75 10 -88 -6 -15
-18 -5 -35 21 -35 23 0 24 -13 2 -91 -21 -77 -31 -61 -39 63 -4 52 -13 103
-20 116 -11 17 -14 52 -12 141 l3 119 85 -24 c104 -29 304 -127 385 -189 299
-226 480 -559 503 -925 6 -106 9 -115 27 -115 19 0 20 6 18 105 -4 312 -146
624 -387 858 -150 145 -300 235 -500 301 l-110 36 -61 135 -61 135 -57 3 c-52
3 -57 1 -57 -18z m145 -169 c27 -60 34 -86 26 -94 -17 -17 -15 -316 3 -323 9
-3 15 -32 20 -87 4 -45 11 -98 16 -117 15 -54 66 -130 89 -130 25 0 29 13 21
67 -7 41 7 123 20 123 11 0 30 -90 30 -141 0 -27 6 -62 14 -77 20 -39 63 -75
80 -69 8 3 27 44 42 91 16 47 31 83 35 78 3 -4 21 -51 39 -105 19 -54 39 -105
45 -113 15 -21 40 -8 58 29 l16 31 12 -29 c7 -17 30 -68 51 -114 21 -46 38
-87 38 -92 0 -4 -10 -9 -22 -11 -22 -3 -23 -7 -23 -103 0 -55 4 -115 8 -133
l9 -32 -285 0 -284 0 -6 53 c-13 115 -62 205 -134 245 -94 52 -229 37 -312
-34 -58 -50 -83 -104 -89 -191 l-5 -73 -299 0 -300 0 5 22 c12 50 29 227 24
242 -4 9 -16 16 -27 16 -11 0 -20 3 -20 6 0 16 112 214 119 210 4 -3 20 -37
36 -76 30 -74 43 -85 101 -78 25 3 31 9 42 53 8 28 15 95 16 151 3 98 4 102
48 183 l45 83 52 -96 c28 -53 51 -108 51 -122 0 -35 17 -64 34 -58 8 3 21 22
29 42 9 20 25 60 37 87 l22 50 14 -47 c15 -48 37 -65 73 -53 34 10 42 125 13
190 -18 40 -18 40 9 110 22 57 29 66 35 50 4 -11 17 -45 29 -75 27 -71 48 -76
77 -16 18 39 23 43 33 29 17 -22 45 -9 45 21 0 13 7 26 15 30 12 4 15 31 15
149 0 84 -4 147 -10 153 -7 7 3 40 31 103 24 50 46 88 50 84 4 -4 24 -46 44
-92z m515 -783 c0 -7 -4 -19 -9 -26 -7 -11 -10 -10 -15 3 -10 26 -7 35 9 35 8
0 15 -6 15 -12z"/>
</g>
</svg>
